<mxfile host="app.diagrams.net" agent="Mozilla/5.0 (Windows NT 10.0; Win64; x64) AppleWebKit/537.36 (KHTML, like Gecko) Chrome/133.0.0.0 Safari/537.36 Edg/133.0.0.0" version="26.0.16">
  <diagram name="Page-1" id="XijXhsu1A0DwLCVzxSzo">
    <mxGraphModel dx="1426" dy="1881" grid="1" gridSize="10" guides="1" tooltips="1" connect="1" arrows="1" fold="1" page="1" pageScale="1" pageWidth="850" pageHeight="1100" math="0" shadow="0">
      <root>
        <mxCell id="0" />
        <mxCell id="1" parent="0" />
        <mxCell id="ELwUVvsa5GVcZx4GyQp3-63" value="" style="group" vertex="1" connectable="0" parent="1">
          <mxGeometry x="15" y="-1084" width="820" height="534.35" as="geometry" />
        </mxCell>
        <UserObject label="" id="ELwUVvsa5GVcZx4GyQp3-1">
          <mxCell style="rounded=0;whiteSpace=wrap;html=1;" vertex="1" parent="ELwUVvsa5GVcZx4GyQp3-63">
            <mxGeometry x="120" width="700" height="530" as="geometry" />
          </mxCell>
        </UserObject>
        <mxCell id="ELwUVvsa5GVcZx4GyQp3-2" value="" style="shape=image;verticalLabelPosition=bottom;labelBackgroundColor=default;verticalAlign=top;aspect=fixed;imageAspect=0;image=https://upload.wikimedia.org/wikipedia/commons/thumb/4/47/React.svg/512px-React.svg.png;" vertex="1" parent="ELwUVvsa5GVcZx4GyQp3-63">
          <mxGeometry y="205.25" width="78.29" height="70.5" as="geometry" />
        </mxCell>
        <mxCell id="ELwUVvsa5GVcZx4GyQp3-6" value="" style="rounded=0;whiteSpace=wrap;html=1;" vertex="1" parent="ELwUVvsa5GVcZx4GyQp3-63">
          <mxGeometry x="360" y="32.35" width="430" height="417.65" as="geometry" />
        </mxCell>
        <mxCell id="ELwUVvsa5GVcZx4GyQp3-10" value="" style="group" vertex="1" connectable="0" parent="ELwUVvsa5GVcZx4GyQp3-63">
          <mxGeometry x="294" y="214.5" width="60" height="52" as="geometry" />
        </mxCell>
        <mxCell id="ELwUVvsa5GVcZx4GyQp3-7" value="" style="shape=image;verticalLabelPosition=bottom;labelBackgroundColor=default;verticalAlign=top;aspect=fixed;imageAspect=0;image=https://files.readme.io/8701241-small-Resilience4j.png;" vertex="1" parent="ELwUVvsa5GVcZx4GyQp3-10">
          <mxGeometry x="15" y="22" width="30" height="30" as="geometry" />
        </mxCell>
        <mxCell id="ELwUVvsa5GVcZx4GyQp3-8" value="Resilience4J" style="text;html=1;align=center;verticalAlign=middle;whiteSpace=wrap;rounded=0;" vertex="1" parent="ELwUVvsa5GVcZx4GyQp3-10">
          <mxGeometry width="60" height="30" as="geometry" />
        </mxCell>
        <mxCell id="ELwUVvsa5GVcZx4GyQp3-31" value="" style="group" vertex="1" connectable="0" parent="ELwUVvsa5GVcZx4GyQp3-63">
          <mxGeometry x="380" y="300.25" width="173.8900000000001" height="122.10000000000002" as="geometry" />
        </mxCell>
        <mxCell id="ELwUVvsa5GVcZx4GyQp3-24" value="&amp;nbsp;Library Service&lt;div&gt;Port: 8084&lt;/div&gt;" style="rounded=0;whiteSpace=wrap;html=1;" vertex="1" parent="ELwUVvsa5GVcZx4GyQp3-31">
          <mxGeometry width="150" height="65" as="geometry" />
        </mxCell>
        <mxCell id="ELwUVvsa5GVcZx4GyQp3-25" value="" style="shape=image;verticalLabelPosition=bottom;labelBackgroundColor=default;verticalAlign=top;aspect=fixed;imageAspect=0;image=https://logos-world.net/wp-content/uploads/2021/02/Docker-Emblem.png;" vertex="1" parent="ELwUVvsa5GVcZx4GyQp3-31">
          <mxGeometry x="85.00000000000006" y="72.07" width="88.89" height="50" as="geometry" />
        </mxCell>
        <mxCell id="ELwUVvsa5GVcZx4GyQp3-26" value="" style="shape=image;verticalLabelPosition=bottom;labelBackgroundColor=default;verticalAlign=top;aspect=fixed;imageAspect=0;image=https://clipart.info/images/ccovers/1499794875MySQL-logo-png-transparent.png;" vertex="1" parent="ELwUVvsa5GVcZx4GyQp3-31">
          <mxGeometry x="5" y="86" width="69.76" height="36.1" as="geometry" />
        </mxCell>
        <mxCell id="ELwUVvsa5GVcZx4GyQp3-35" value="" style="group" vertex="1" connectable="0" parent="ELwUVvsa5GVcZx4GyQp3-63">
          <mxGeometry x="380" y="51.5" width="150" height="127" as="geometry" />
        </mxCell>
        <mxCell id="ELwUVvsa5GVcZx4GyQp3-18" value="Book Service&amp;nbsp;&lt;div&gt;Port: 8083&lt;/div&gt;" style="rounded=0;whiteSpace=wrap;html=1;" vertex="1" parent="ELwUVvsa5GVcZx4GyQp3-35">
          <mxGeometry y="62" width="150" height="65" as="geometry" />
        </mxCell>
        <mxCell id="ELwUVvsa5GVcZx4GyQp3-20" value="" style="shape=image;verticalLabelPosition=bottom;labelBackgroundColor=default;verticalAlign=top;aspect=fixed;imageAspect=0;image=https://www.opc-router.com/wp-content/uploads/2021/03/mongodb_thumbnail.png;" vertex="1" parent="ELwUVvsa5GVcZx4GyQp3-35">
          <mxGeometry x="15" width="44.61" height="60" as="geometry" />
        </mxCell>
        <mxCell id="ELwUVvsa5GVcZx4GyQp3-23" value="" style="shape=image;verticalLabelPosition=bottom;labelBackgroundColor=default;verticalAlign=top;aspect=fixed;imageAspect=0;image=https://logos-world.net/wp-content/uploads/2021/02/Docker-Emblem.png;" vertex="1" parent="ELwUVvsa5GVcZx4GyQp3-35">
          <mxGeometry x="53.00000000000006" y="6" width="88.89" height="50" as="geometry" />
        </mxCell>
        <mxCell id="ELwUVvsa5GVcZx4GyQp3-49" value="" style="endArrow=classic;html=1;rounded=0;entryX=0;entryY=0.5;entryDx=0;entryDy=0;exitX=1;exitY=0.5;exitDx=0;exitDy=0;" edge="1" parent="ELwUVvsa5GVcZx4GyQp3-63" source="ELwUVvsa5GVcZx4GyQp3-24" target="ELwUVvsa5GVcZx4GyQp3-28">
          <mxGeometry width="50" height="50" relative="1" as="geometry">
            <mxPoint x="690" y="229.75" as="sourcePoint" />
            <mxPoint x="740" y="179.75" as="targetPoint" />
          </mxGeometry>
        </mxCell>
        <mxCell id="ELwUVvsa5GVcZx4GyQp3-50" value="" style="endArrow=classic;html=1;rounded=0;entryX=0;entryY=0.5;entryDx=0;entryDy=0;exitX=1;exitY=0.25;exitDx=0;exitDy=0;" edge="1" parent="ELwUVvsa5GVcZx4GyQp3-63" source="ELwUVvsa5GVcZx4GyQp3-3" target="ELwUVvsa5GVcZx4GyQp3-18">
          <mxGeometry width="50" height="50" relative="1" as="geometry">
            <mxPoint x="545" y="327" as="sourcePoint" />
            <mxPoint x="760" y="188" as="targetPoint" />
          </mxGeometry>
        </mxCell>
        <mxCell id="ELwUVvsa5GVcZx4GyQp3-51" value="" style="endArrow=classic;html=1;rounded=0;entryX=0;entryY=0.5;entryDx=0;entryDy=0;exitX=1;exitY=0.75;exitDx=0;exitDy=0;" edge="1" parent="ELwUVvsa5GVcZx4GyQp3-63" source="ELwUVvsa5GVcZx4GyQp3-3" target="ELwUVvsa5GVcZx4GyQp3-24">
          <mxGeometry width="50" height="50" relative="1" as="geometry">
            <mxPoint x="350" y="229" as="sourcePoint" />
            <mxPoint x="419" y="175" as="targetPoint" />
          </mxGeometry>
        </mxCell>
        <mxCell id="ELwUVvsa5GVcZx4GyQp3-52" value="" style="group" vertex="1" connectable="0" parent="ELwUVvsa5GVcZx4GyQp3-63">
          <mxGeometry x="150" y="152.5" width="130" height="122.5" as="geometry" />
        </mxCell>
        <mxCell id="ELwUVvsa5GVcZx4GyQp3-3" value="API Gateway&amp;nbsp;&lt;div&gt;Port: 8081&lt;/div&gt;" style="rounded=0;whiteSpace=wrap;html=1;" vertex="1" parent="ELwUVvsa5GVcZx4GyQp3-52">
          <mxGeometry y="57.5" width="130" height="65" as="geometry" />
        </mxCell>
        <mxCell id="ELwUVvsa5GVcZx4GyQp3-47" value="" style="shape=image;verticalLabelPosition=bottom;labelBackgroundColor=default;verticalAlign=top;aspect=fixed;imageAspect=0;image=https://logos-world.net/wp-content/uploads/2021/02/Docker-Emblem.png;" vertex="1" parent="ELwUVvsa5GVcZx4GyQp3-52">
          <mxGeometry x="20.55000000000014" width="88.89" height="50" as="geometry" />
        </mxCell>
        <mxCell id="ELwUVvsa5GVcZx4GyQp3-53" value="" style="group" vertex="1" connectable="0" parent="ELwUVvsa5GVcZx4GyQp3-63">
          <mxGeometry x="150" y="320" width="130" height="124.35000000000002" as="geometry" />
        </mxCell>
        <mxCell id="ELwUVvsa5GVcZx4GyQp3-9" value="" style="group" vertex="1" connectable="0" parent="ELwUVvsa5GVcZx4GyQp3-53">
          <mxGeometry width="130" height="70" as="geometry" />
        </mxCell>
        <mxCell id="ELwUVvsa5GVcZx4GyQp3-4" value="Auth Service&lt;div&gt;Port: 8082&lt;/div&gt;" style="rounded=0;whiteSpace=wrap;html=1;verticalAlign=top;" vertex="1" parent="ELwUVvsa5GVcZx4GyQp3-9">
          <mxGeometry width="130" height="70" as="geometry" />
        </mxCell>
        <mxCell id="ELwUVvsa5GVcZx4GyQp3-5" value="" style="shape=image;verticalLabelPosition=bottom;labelBackgroundColor=default;verticalAlign=top;aspect=fixed;imageAspect=0;image=https://vectorseek.com/wp-content/uploads/2023/11/Keycloak-Logo-Vector.svg-.png;" vertex="1" parent="ELwUVvsa5GVcZx4GyQp3-9">
          <mxGeometry x="19.06272727272727" y="43.93000000000001" width="77.74" height="16.07" as="geometry" />
        </mxCell>
        <mxCell id="ELwUVvsa5GVcZx4GyQp3-46" value="" style="shape=image;verticalLabelPosition=bottom;labelBackgroundColor=default;verticalAlign=top;aspect=fixed;imageAspect=0;image=https://logos-world.net/wp-content/uploads/2021/02/Docker-Emblem.png;" vertex="1" parent="ELwUVvsa5GVcZx4GyQp3-53">
          <mxGeometry x="20.550000000000082" y="74.35000000000002" width="88.89" height="50" as="geometry" />
        </mxCell>
        <mxCell id="ELwUVvsa5GVcZx4GyQp3-54" value="" style="endArrow=classic;html=1;rounded=0;entryX=0;entryY=0.5;entryDx=0;entryDy=0;" edge="1" parent="ELwUVvsa5GVcZx4GyQp3-63" target="ELwUVvsa5GVcZx4GyQp3-3">
          <mxGeometry width="50" height="50" relative="1" as="geometry">
            <mxPoint x="90" y="243" as="sourcePoint" />
            <mxPoint x="429" y="185" as="targetPoint" />
          </mxGeometry>
        </mxCell>
        <mxCell id="ELwUVvsa5GVcZx4GyQp3-55" value="" style="endArrow=classic;html=1;rounded=0;entryX=0.5;entryY=0;entryDx=0;entryDy=0;exitX=0.5;exitY=1;exitDx=0;exitDy=0;" edge="1" parent="ELwUVvsa5GVcZx4GyQp3-63" source="ELwUVvsa5GVcZx4GyQp3-3" target="ELwUVvsa5GVcZx4GyQp3-4">
          <mxGeometry width="50" height="50" relative="1" as="geometry">
            <mxPoint x="370" y="249" as="sourcePoint" />
            <mxPoint x="439" y="195" as="targetPoint" />
          </mxGeometry>
        </mxCell>
        <mxCell id="ELwUVvsa5GVcZx4GyQp3-58" value="" style="shape=image;verticalLabelPosition=bottom;labelBackgroundColor=default;verticalAlign=top;aspect=fixed;imageAspect=0;image=https://i.imgur.com/0HhNox3.png;" vertex="1" parent="ELwUVvsa5GVcZx4GyQp3-63">
          <mxGeometry x="411.95" y="459.06" width="110" height="61.88" as="geometry" />
        </mxCell>
        <mxCell id="ELwUVvsa5GVcZx4GyQp3-59" value="" style="shape=image;verticalLabelPosition=bottom;labelBackgroundColor=default;verticalAlign=top;aspect=fixed;imageAspect=0;image=https://bohica.net/wp-content/uploads/2023/09/Grafana-feature.png;" vertex="1" parent="ELwUVvsa5GVcZx4GyQp3-63">
          <mxGeometry x="615.12" y="444.35" width="159.76" height="90" as="geometry" />
        </mxCell>
        <mxCell id="ELwUVvsa5GVcZx4GyQp3-28" value="Notification Service&amp;nbsp;&lt;div&gt;Port: 8085&lt;/div&gt;" style="rounded=0;whiteSpace=wrap;html=1;" vertex="1" parent="ELwUVvsa5GVcZx4GyQp3-63">
          <mxGeometry x="630" y="300.25" width="130" height="65" as="geometry" />
        </mxCell>
        <mxCell id="ELwUVvsa5GVcZx4GyQp3-29" value="" style="shape=image;verticalLabelPosition=bottom;labelBackgroundColor=default;verticalAlign=top;aspect=fixed;imageAspect=0;image=https://logos-world.net/wp-content/uploads/2021/02/Docker-Emblem.png;" vertex="1" parent="ELwUVvsa5GVcZx4GyQp3-63">
          <mxGeometry x="634.0000000000001" y="245.25" width="88.89" height="50" as="geometry" />
        </mxCell>
        <mxCell id="ELwUVvsa5GVcZx4GyQp3-42" value="" style="shape=image;verticalLabelPosition=bottom;labelBackgroundColor=default;verticalAlign=top;aspect=fixed;imageAspect=0;image=https://www.svgrepo.com/show/137590/email.svg;" vertex="1" parent="ELwUVvsa5GVcZx4GyQp3-63">
          <mxGeometry x="714" y="253.25" width="34" height="34" as="geometry" />
        </mxCell>
        <mxCell id="ELwUVvsa5GVcZx4GyQp3-62" value="" style="group" vertex="1" connectable="0" parent="ELwUVvsa5GVcZx4GyQp3-63">
          <mxGeometry x="538.7900000000001" y="195" width="88.88999999999999" height="125" as="geometry" />
        </mxCell>
        <mxCell id="ELwUVvsa5GVcZx4GyQp3-16" value="" style="group" vertex="1" connectable="0" parent="ELwUVvsa5GVcZx4GyQp3-62">
          <mxGeometry x="11.209999999999923" y="85.25" width="66.47999999999999" height="39.75" as="geometry" />
        </mxCell>
        <mxCell id="ELwUVvsa5GVcZx4GyQp3-14" value="" style="shape=image;verticalLabelPosition=bottom;labelBackgroundColor=default;verticalAlign=top;aspect=fixed;imageAspect=0;image=https://upload.wikimedia.org/wikipedia/commons/thumb/0/01/Apache_Kafka_logo.svg/800px-Apache_Kafka_logo.svg.png;" vertex="1" parent="ELwUVvsa5GVcZx4GyQp3-16">
          <mxGeometry width="24.48" height="39.75" as="geometry" />
        </mxCell>
        <mxCell id="ELwUVvsa5GVcZx4GyQp3-15" value="&lt;div style=&quot;text-align: center;&quot;&gt;&lt;span style=&quot;background-color: transparent; color: light-dark(rgb(0, 0, 0), rgb(255, 255, 255));&quot;&gt;&lt;font style=&quot;font-size: 15px;&quot;&gt;kafka&lt;/font&gt;&lt;/span&gt;&lt;/div&gt;" style="text;whiteSpace=wrap;html=1;" vertex="1" parent="ELwUVvsa5GVcZx4GyQp3-16">
          <mxGeometry x="26.47999999999999" y="4.8799999999999955" width="40" height="30" as="geometry" />
        </mxCell>
        <mxCell id="ELwUVvsa5GVcZx4GyQp3-60" value="" style="shape=image;verticalLabelPosition=bottom;labelBackgroundColor=default;verticalAlign=top;aspect=fixed;imageAspect=0;image=https://logos-world.net/wp-content/uploads/2021/02/Docker-Emblem.png;" vertex="1" parent="ELwUVvsa5GVcZx4GyQp3-62">
          <mxGeometry y="30" width="88.89" height="50" as="geometry" />
        </mxCell>
        <mxCell id="ELwUVvsa5GVcZx4GyQp3-61" value="Port: 8086" style="text;html=1;align=center;verticalAlign=middle;whiteSpace=wrap;rounded=0;" vertex="1" parent="ELwUVvsa5GVcZx4GyQp3-62">
          <mxGeometry x="11.209999999999923" width="60" height="30" as="geometry" />
        </mxCell>
      </root>
    </mxGraphModel>
  </diagram>
</mxfile>
